<svg xmlns="http://www.w3.org/2000/svg" viewBox="0 0 16.933 16.933"><g transform="translate(0 -280.067)"><path fill="#fcb860" d="m 15.610417,293.03124 v 0.52917 c 0,1.46579 -1.180044,2.64583 -2.645833,2.64583 H 3.9687503 c -1.465791,0 -2.645833,-1.18004 -2.645833,-2.64583 v -0.52917 z"/><path fill="#fbb04f" d="m 14.816667,293.03176 v 0.52917 c 0,1.16936 -0.690431,2.17444 -1.684652,2.63705 1.38678,-0.0863 2.478402,-1.22832 2.478402,-2.63757 v -0.52865 z" color="#000" font-family="sans-serif" font-weight="400" overflow="visible" style="line-height:normal;font-variant-ligatures:normal;font-variant-position:normal;font-variant-caps:normal;font-variant-numeric:normal;font-variant-alternates:normal;font-feature-settings:normal;text-indent:0;text-align:start;text-decoration-line:none;text-decoration-style:solid;text-decoration-color:#000;text-transform:none;text-orientation:mixed;shape-padding:0;isolation:auto;mix-blend-mode:normal"/><path fill="#b38051" d="M 2.1166692,289.85625 H 14.816666 c 0.732896,0 1.322917,-0.59003 1.322917,-1.32292 0,-0.7329 -0.590021,-1.32292 -1.322917,-1.32292 H 2.1166692 c -0.7328962,0 -1.32291732,0.59002 -1.32291732,1.32292 0,0.73289 0.59002112,1.32292 1.32291732,1.32292 z"/><path fill="#59e78b" d="m 13.758339,293.03124 c -0.529172,-7.9e-4 -0.79375,0.5292 -1.322922,0.5292 -0.529159,0 -0.79375,-0.52992 -1.322919,-0.52882 -0.529159,-2.6e-4 -0.79374,0.52958 -1.322909,0.52958 -0.5291691,0 -0.7937501,-0.52996 -1.3229191,-0.52958 -0.529172,-2.6e-4 -0.79375,0.52958 -1.322922,0.52958 -0.529159,0 -0.79375,-0.52996 -1.322909,-0.52958 -0.529169,-10e-4 -0.79375,0.52882 -1.3229188,0.52882 -0.5291722,0 -0.79375,-0.52996 -1.3229222,-0.5292 -0.529159,-7.9e-4 -0.7937479,0.5272 -1.3229171,0.52953 -0.5863138,3.5e-4 -1.05833043,-0.47168 -1.05833043,-1.058 0,-0.58631 0.47201663,-1.05833 1.05833333,-1.05833 H 15.08125 c 0.586317,0 1.058334,0.47202 1.058334,1.05833 0,0.58632 -0.472017,1.05834 -1.05833,1.058 -0.529165,-3.4e-4 -0.793756,-0.53029 -1.322915,-0.52953 z"/><path fill="#fcb860" d="m 1.3229171,287.21041 c 0,-3.175 2.3812498,-6.35 7.1437531,-6.35 4.7625028,0 7.1437468,3.175 7.1437468,6.35 z"/><path fill="#fc6067" d="m 14.816667,291.44374 c 0.439738,0 0.79375,-0.35401 0.79375,-0.79374 0,-0.43974 -0.354012,-0.79375 -0.79375,-0.79375 H 2.1166664 c -0.4397372,0 -0.7937494,0.35401 -0.7937494,0.79375 0,0.43973 0.3540122,0.79374 0.7937494,0.79374 z"/><path fill="#f7f065" d="m 2.9104225,287.21041 5.5562445,3.70417 5.556253,-3.70417 z"/><path fill="#a77649" d="m 14.022917,287.21041 c 0.732895,0 1.322916,0.59002 1.322916,1.32292 0,0.73289 -0.590021,1.32291 -1.322916,1.32291 h 1.058333 c 0.732896,0 1.322917,-0.59002 1.322917,-1.32291 0,-0.7329 -0.590021,-1.32292 -1.322917,-1.32292 z"/><path fill="#fbb04f" d="m 10.196277,281.01441 c 3.050213,0.98876 4.619975,3.59155 4.62039,6.196 h 0.79375 c 0,-2.76383 -1.805279,-5.52651 -5.41414,-6.196 z" color="#000" font-family="sans-serif" font-weight="400" overflow="visible" style="line-height:normal;font-variant-ligatures:normal;font-variant-position:normal;font-variant-caps:normal;font-variant-numeric:normal;font-variant-alternates:normal;font-feature-settings:normal;text-indent:0;text-align:start;text-decoration-line:none;text-decoration-style:solid;text-decoration-color:#000;text-transform:none;text-orientation:mixed;shape-padding:0;isolation:auto;mix-blend-mode:normal"/><path fill="#41e37a" d="m 14.807882,291.44426 c 0.324413,0.24124 0.537951,0.62396 0.537951,1.05782 0,0.41295 -0.193395,0.77909 -0.491959,1.02112 0.07125,0.0215 0.145388,0.0377 0.227376,0.0377 0.586313,3.4e-4 1.058333,-0.47202 1.058333,-1.05834 0,-0.58631 -0.472016,-1.05833 -1.058333,-1.05833 z" color="#000" font-family="sans-serif" font-weight="400" overflow="visible" style="line-height:normal;font-variant-ligatures:normal;font-variant-position:normal;font-variant-caps:normal;font-variant-numeric:normal;font-variant-alternates:normal;font-feature-settings:normal;text-indent:0;text-align:start;text-decoration-line:none;text-decoration-style:solid;text-decoration-color:#000;text-transform:none;text-orientation:mixed;shape-padding:0;isolation:auto;mix-blend-mode:normal"/><path fill="#fb4f56" d="m 14.022917,289.85624 c 0.439738,0 0.79375,0.35401 0.79375,0.79375 0,0.43974 -0.354012,0.79375 -0.79375,0.79375 h 1.058333 c 0.439738,0 0.79375,-0.35401 0.79375,-0.79375 0,-0.43974 -0.354012,-0.79375 -0.79375,-0.79375 z"/><path fill="#f4ec42" d="m 12.831775,287.21041 c -1.653445,1.10247 -3.3069488,2.20486 -4.9604205,3.30729 l 0.5953125,0.39688 5.55625,-3.70417 z" color="#000" font-family="sans-serif" font-weight="400" overflow="visible" style="line-height:normal;font-variant-ligatures:normal;font-variant-position:normal;font-variant-caps:normal;font-variant-numeric:normal;font-variant-alternates:normal;font-feature-settings:normal;text-indent:0;text-align:start;text-decoration-line:none;text-decoration-style:solid;text-decoration-color:#000;text-transform:none;text-orientation:mixed;shape-padding:0;isolation:auto;mix-blend-mode:normal"/><path d="m 3.9687503,296.47083 h 8.9963507 c 1.60779,0 2.914551,-1.30288 2.909899,-2.91042 0.320227,-0.24107 0.529167,-0.62408 0.529167,-1.05833 0,-0.52886 -0.314957,-0.98353 -0.765328,-1.19476 0.145354,-0.18134 0.236161,-0.408 0.236161,-0.65681 0,-0.28129 -0.113114,-0.53638 -0.294038,-0.72657 0.490035,-0.2708 0.823205,-0.79275 0.823205,-1.39061 0,-0.46819 -0.205259,-0.88877 -0.529167,-1.17978 v -0.14211 c 0,-3.30729 -2.528238,-6.61561 -7.408333,-6.61561 -4.880096,-10e-6 -7.4078166,3.30832 -7.4078166,6.61561 v 0.14211 c -0.32399991,0.29102 -0.52968339,0.71151 -0.52968339,1.17978 0,0.59801 0.33348833,1.11987 0.82372229,1.39061 -0.1809244,0.19019 -0.2940389,0.44528 -0.2940389,0.72657 0,0.24881 0.090807,0.47547 0.2361613,0.65681 -0.45042408,0.21119 -0.76584469,0.66587 -0.76584469,1.19476 0,0.43428 0.20889986,0.817 0.52916659,1.05833 -0.00465,1.60779 1.3026233,2.91042 2.9104167,2.91042 z M 8.466667,281.12551 c 4.555158,0 6.786167,2.9269 6.870899,5.90972 -0.16351,-0.0571 -0.338783,-0.0899 -0.521416,-0.0899 H 2.1171838 c -0.182633,0 -0.3573887,0.0328 -0.5208985,0.0899 0.084731,-2.98282 2.315224,-5.90972 6.8703817,-5.90972 z m -1.5875,1.05782 c -0.1461254,0 -0.2645834,0.11845 -0.2645834,0.26458 0,0.14613 0.118458,0.26458 0.2645834,0.26458 0.1461254,0 0.2645833,-0.11845 0.2645833,-0.26458 0,-0.14613 -0.1184579,-0.26458 -0.2645833,-0.26458 z m 3.175,0 c -0.1461257,0 -0.2645833,0.11845 -0.2645833,0.26458 0,0.14613 0.1184576,0.26458 0.2645833,0.26458 0.146125,0 0.264583,-0.11845 0.264583,-0.26458 0,-0.14613 -0.118458,-0.26458 -0.264583,-0.26458 z m -4.7625,1.5875 c -0.1461255,0 -0.2645834,0.11845 -0.2645834,0.26458 0,0.14613 0.1184579,0.26458 0.2645834,0.26458 0.1461254,0 0.2645833,-0.11845 0.2645833,-0.26458 0,-0.14613 -0.1184579,-0.26458 -0.2645833,-0.26458 z m 3.175,0 c -0.1461254,0 -0.2645834,0.11845 -0.2645834,0.26458 0,0.14613 0.118458,0.26458 0.2645834,0.26458 0.1461254,0 0.2645833,-0.11845 0.2645833,-0.26458 0,-0.14613 -0.1184579,-0.26458 -0.2645833,-0.26458 z m 3.175,0 c -0.146125,0 -0.264583,0.11845 -0.264583,0.26458 0,0.14613 0.118458,0.26458 0.264583,0.26458 0.146126,0 0.264583,-0.11845 0.264583,-0.26458 0,-0.14613 -0.118457,-0.26458 -0.264583,-0.26458 z m -7.9375001,1.5875 c -0.1461254,0 -0.2645833,0.11845 -0.2645833,0.26458 0,0.14613 0.1184579,0.26458 0.2645833,0.26458 0.1461254,0 0.2645834,-0.11845 0.2645834,-0.26458 0,-0.14613 -0.118458,-0.26458 -0.2645834,-0.26458 z m 3.1750001,0 c -0.1461254,0 -0.2645834,0.11845 -0.2645834,0.26458 0,0.14613 0.118458,0.26458 0.2645834,0.26458 0.1461254,0 0.2645833,-0.11845 0.2645833,-0.26458 0,-0.14613 -0.1184579,-0.26458 -0.2645833,-0.26458 z m 3.175,0 c -0.1461257,0 -0.2645833,0.11845 -0.2645833,0.26458 0,0.14613 0.1184576,0.26458 0.2645833,0.26458 0.146125,0 0.264583,-0.11845 0.264583,-0.26458 0,-0.14613 -0.118458,-0.26458 -0.264583,-0.26458 z m 3.175,0 c -0.146125,0 -0.264583,0.11845 -0.264583,0.26458 0,0.14613 0.118458,0.26458 0.264583,0.26458 0.146126,0 0.264583,-0.11845 0.264583,-0.26458 0,-0.14613 -0.118457,-0.26458 -0.264583,-0.26458 z m -11.1119832,2.11666 h 0.7136515 l 3.1755168,2.11719 H 2.1171838 c -0.5908936,0 -1.0583334,-0.46796 -1.0583334,-1.05885 0,-0.5909 0.4674398,-1.05834 1.0583334,-1.05834 z m 1.6665648,0 h 9.3658364 l -4.682918,3.12074 z m 10.3187504,0 h 0.713651 c 0.590894,0 1.05885,0.46744 1.05885,1.05834 0,0.59089 -0.467956,1.05885 -1.05885,1.05885 h -3.888651 z m -0.608232,4.23437 h 1.588017 c 0.444455,2e-4 0.792716,0.3484 0.792716,0.79272 0,0.44413 -0.348222,0.79527 -0.793491,0.79452 -0.409107,-7.7e-4 -0.703005,-0.53072 -1.323175,-0.53046 -0.620173,2.6e-4 -0.914072,0.5302 -1.322917,0.5302 -0.408844,0 -0.702745,-0.52994 -1.322917,-0.5302 -0.620173,-2.6e-4 -0.914072,0.52969 -1.3229163,0.52969 -0.4088448,0 -0.702744,-0.52943 -1.3229167,-0.52969 -0.6201728,-2.6e-4 -0.9140719,0.52917 -1.3229167,0.52917 -0.4088447,0 -0.7027439,-0.52943 -1.3229167,-0.52917 -0.6201701,2.6e-4 -0.9140719,0.52969 -1.3229167,0.52969 -0.4088447,0 -0.7027439,-0.52943 -1.3229166,-0.52969 -0.6201727,-2.6e-4 -0.9138118,0.52891 -1.3223999,0.52917 h -5.159e-4 l -0.00207,0.002 c -0.4434738,-5.8e-4 -0.7911669,-0.35151 -0.7911669,-0.7953 0,-0.44431 0.3483781,-0.79268 0.7927165,-0.79271 H 11.11353 c 0.352865,0 0.352865,-0.52917 0,-0.52917 H 2.1171838 c -0.2977347,0 -0.5291667,-0.23195 -0.5291667,-0.52968 0,-0.29774 0.231432,-0.52917 0.5291667,-0.52917 h 4.6829183 l 1.5203207,1.01389 c 0.088755,0.059 0.2042498,0.059 0.2930054,0 l 1.5203198,-1.01393 h 4.682402 c 0.297736,0 0.529684,0.23143 0.529684,0.52917 0,0.29773 -0.231948,0.52992 -0.529684,0.52968 l -1.3224,-0.001 c -0.366698,-2.9e-4 -0.352505,0.5302 5.29e-4,0.5302 z m -1.05885,0 c 0.352865,0 0.352862,-0.52779 0,-0.52917 l -0.264583,-10e-4 c -0.365777,-0.001 -0.354166,0.5302 -10e-4,0.5302 z m -2.6458333,2.11563 c 0.6318563,0 0.9170053,-0.52942 1.3229163,-0.52916 0.40591,2.6e-4 0.691058,0.52968 1.322917,0.52968 0.63186,0 0.917006,-0.52942 1.322917,-0.52968 0.405911,-2.6e-4 0.691058,0.52916 1.321883,0.52916 h 0.001 l 10e-4,-5.3e-4 c 0.0862,5e-5 0.169997,-0.009 0.251665,-0.0248 -0.118183,1.2099 -1.125699,2.142 -2.368847,2.142 H 3.9687611 c -1.2431501,0 -2.2511801,-0.9321 -2.3693643,-2.14198 0.081684,0.0159 0.1659663,0.0249 0.252181,0.0248 h 5.159e-4 0.00103 c 0.6308249,0 0.9159727,-0.52943 1.3218832,-0.52917 0.4059084,2.6e-4 0.6910562,0.52968 1.3229156,0.52968 0.6318594,0 0.9170062,-0.52942 1.3229167,-0.52968 0.405915,-2.6e-4 0.6910573,0.52917 1.3229167,0.52917 0.6318594,0 0.9170061,-0.52917 1.3229166,-0.52891 0.4059106,2.6e-4 0.6910573,0.52942 1.3229167,0.52942 z" color="#000" font-family="sans-serif" font-weight="400" overflow="visible" style="line-height:normal;font-variant-ligatures:normal;font-variant-position:normal;font-variant-caps:normal;font-variant-numeric:normal;font-variant-alternates:normal;font-feature-settings:normal;text-indent:0;text-align:start;text-decoration-line:none;text-decoration-style:solid;text-decoration-color:#000;text-transform:none;text-orientation:mixed;shape-padding:0;isolation:auto;mix-blend-mode:normal"/></g></svg>