<svg xmlns="http://www.w3.org/2000/svg" viewBox="0 0 16.933 16.933"><g transform="translate(0 -280.067)"><path fill="#fcb860" d="M15.351182 292.65007c-.02167.86735-.414412 2.61426-.978231 3.17808-.565764.56577-1.399286.5464-1.697286-.56576-.260932-.97381-.827403-2.58404-.827403-2.58404l1.116322-2.02836zM4.3499259 281.64882c-.8673452.0217-2.6142621.41441-3.1780821.97823-.565764.56576-.546396 1.39928.565759 1.69728.9738159.26094 2.584046.82741 2.584046.82741l2.5575178-1.38091z"/><path fill="#fcb860" d="m 9.4681505,281.49706 c 0,0 -2.3969297,-0.9075 -4.2827987,-0.53033 -0.8538771,0.17078 -0.942937,0.94294 -0.942937,0.94294 v 3.175 c -0.019579,0.33277 0.07626,0.78485 0.754348,1.13152 l 1.8326968,0.93695 3.4892904,-2.32398 z"/><path fill="#fbb04f" d="M4.3046467 281.65209c-.2343494.009-.5251291.0431-.838708.0987-.00159.0102-.00418.0327-.00569.0408l-.00775.047-.00159 3.01636c.3911229.13067.6140767.20825.7131341.24287.018574-.98518.1233487-2.41549.1405599-3.44578zM15.347901 292.69741c-1.030666.0173-2.460663.12207-3.445267.14056.03505.10031.111964.32171.24288.71365l3.017903-.002.04702-.008c.01333-.002.02564-.006.03876-.009.05538-.31235.08989-.60182.0987-.83561z" color="#000" font-family="sans-serif" font-weight="400" overflow="visible" style="line-height:normal;font-variant-ligatures:normal;font-variant-position:normal;font-variant-caps:normal;font-variant-numeric:normal;font-variant-alternates:normal;font-feature-settings:normal;text-indent:0;text-align:start;text-decoration-line:none;text-decoration-style:solid;text-decoration-color:#000;text-transform:none;text-orientation:mixed;shape-padding:0;isolation:auto;mix-blend-mode:normal"/><path fill="#fcb860" d="m 15.502941,287.53185 c 0,0 0.907499,2.39693 0.530326,4.2828 -0.170775,0.85387 -0.942937,0.94293 -0.942937,0.94293 h -3.175 c -0.332768,0.0196 -0.784853,-0.0763 -1.131523,-0.75435 l -0.9369505,-1.83269 0.2073105,-3.4893 z"/><path fill="#fbb04f" d="M15.513265 287.56284c-1.649711.51341-4.164917 1.89571-5.6575355 2.46083l-.0088.14676.4294295.83975c.106146-.0396.206473-.0819.295074-.12454l5.090128-2.45102c.03718-.0179.06967-.0396.10387-.0599-.130688-.48457-.240231-.7799-.252182-.81184zM8.6278987 281.23506c-.020664.0346-.042309.0677-.060463.10542l-2.4510127 5.09013c-.042579.0885-.085016.18809-.124542.29404l.8376761.4284.1953366-.12971c.5930927-1.50633 1.9154511-3.9319 2.4143228-5.5361-.02993-.0112-.3266359-.12133-.8113178-.25218z" color="#000" font-family="sans-serif" font-weight="400" overflow="visible" style="line-height:normal;font-variant-ligatures:normal;font-variant-position:normal;font-variant-caps:normal;font-variant-numeric:normal;font-variant-alternates:normal;font-feature-settings:normal;text-indent:0;text-align:start;text-decoration-line:none;text-decoration-style:solid;text-decoration-color:#000;text-transform:none;text-orientation:mixed;shape-padding:0;isolation:auto;mix-blend-mode:normal"/><path fill="#fcb860" d="m 10.305077,281.13155 c -0.4030585,0 -0.8378695,0.16428 -1.0254435,0.55398 l -2.4501778,5.09043 c -0.1922428,0.3994 -0.3134321,0.81809 0,1.13153 0.733344,0.77549 1.499018,1.51822 2.2630561,2.26305 0.3134307,0.31343 0.7321227,0.19225 1.1315222,0 l 5.090388,-2.45022 c 0.389698,-0.18758 0.553977,-0.62239 0.553975,-1.02544 10e-7,-0.75435 -0.51629,-2.40677 -1.836399,-3.72688 -1.32011,-1.32011 -2.972573,-1.83645 -3.726921,-1.83645 z"/><path d="m 6.3924897,287.22902 -1.518769,-0.77721 c -0.6079519,-0.31082 -0.8351308,-0.70008 -0.8949319,-1.14057 -0.3332221,-0.11564 -1.484993,-0.50901 -2.312109,-0.73064 -0.615276,-0.16486 -1.002671,-0.51666 -1.101741,-0.94516 -0.09907,-0.4285 0.08817,-0.86539 0.418063,-1.19528 0.356801,-0.35679 0.954391,-0.58268 1.590085,-0.75964 0.556654,-0.15496 1.122016,-0.25591 1.5719979,-0.2868 0.2622791,-0.43891 0.630655,-0.61639 0.986504,-0.68575 1.2497879,-0.24359 2.802242,0.003 4.2245468,0.47129 0.271065,-0.21835 0.624054,-0.31316 0.9472295,-0.31316 0.875086,0 2.540191,0.54032 3.913973,1.9141 1.373781,1.37378 1.91203,3.03889 1.912028,3.91397 2e-6,0.32311 -0.09341,0.67618 -0.311092,0.94723 0.173993,0.48754 0.823119,2.4654 0.471289,4.22455 -0.06987,0.42561 -0.352343,0.78042 -0.685744,0.98237 -0.0309,0.44998 -0.147122,1.01545 -0.286806,1.57613 -0.33296,1.33646 -1.012857,2.193 -1.954919,2.00815 -0.431575,-0.0847 -0.780301,-0.48647 -0.945163,-1.10174 -0.221623,-0.82712 -0.618175,-1.98189 -0.733806,-2.31511 -0.302557,-0.0267 -0.786731,-0.20669 -1.137396,-0.89194 l -0.7772145,-1.51876 c -0.315865,0.0622 -0.6174287,10e-4 -0.8645469,-0.24599 -0.7624659,-0.74332 -1.5279899,-1.48594 -2.2654998,-2.26652 -0.2501159,-0.25012 -0.311185,-0.58272 -0.2459781,-0.86352 z M 5.1140518,285.98103 6.5615076,286.72 c 0.1602611,-0.34095 0.3304472,-0.69015 0.4955781,-1.03353 0.153652,-0.31798 0.630627,-0.0875 0.476975,0.23048 l -0.4692219,0.97461 c -0.08987,0.18673 -0.1530652,0.36633 -0.1638149,0.50385 -0.010739,0.13752 0.01016,0.221 0.1162658,0.32711 0.731216,0.77307 1.50241,1.50344 2.2587718,2.2598 0.234783,0.23479 0.564727,0.0603 0.8299295,-0.0501 l 5.0922,-2.45101 c 0.271907,-0.13088 0.404112,-0.45587 0.404112,-0.78703 0,-0.63362 -0.493147,-2.27288 -1.759585,-3.53932 -1.266439,-1.26643 -2.905705,-1.75958 -3.539319,-1.75958 -0.3311605,0 -0.6561565,0.13221 -0.7870325,0.40411 l -0.9999367,2.07843 c -0.1565641,0.30914 -0.621641,0.0842 -0.4764591,-0.23048 l 0.9725531,-2.02003 c -1.009446,-0.33037 -2.658526,-0.64392 -3.7775489,-0.40204 -0.496348,0.10728 -0.6548411,0.40955 -0.730187,0.70899 v 3.16234 c 0,0.23847 0.0052,0.57562 0.6092639,0.88445 z M 3.9751029,281.942 c -0.371139,0.0422 -0.8269182,0.12767 -1.2593532,0.24804 -0.5955589,0.16579 -1.1525889,0.4162 -1.3596059,0.62322 -0.235877,0.23588 -0.322649,0.49912 -0.275437,0.70332 0.04721,0.2042 0.226073,0.41928 0.722953,0.55242 0.764225,0.20477 1.6896709,0.52033 2.1714431,0.68678 z m 4.1273968,2.79724 -0.119372,0.24391 c -0.15865,0.32417 -0.6289279,0.0913 -0.4764559,-0.22841 0.0391,-0.082 0.1173049,-0.24598 0.1173049,-0.24598 0.151987,-0.3187 0.636543,-0.0924 0.478523,0.23048 z m 6.9608173,7.75353 c 0.39387,-0.0673 0.639413,-0.38466 0.708999,-0.73018 0.27323,-1.36615 -0.180012,-3.06634 -0.402042,-3.77755 l -5.092711,2.45101 0.738971,1.44746 c 0.271459,0.53172 0.612364,0.62505 0.884443,0.60926 z m -0.0083,0.52969 H 12.24175 c 0.166452,0.48177 0.482008,1.40722 0.686782,2.17144 0.119734,0.44686 0.345861,0.68745 0.552421,0.72295 0.725334,0.12469 1.122508,-0.8736 1.326533,-1.63504 0.116179,-0.43358 0.205346,-0.88822 0.247531,-1.25935 z" color="#000" font-family="sans-serif" font-weight="400" overflow="visible" style="line-height:normal;font-variant-ligatures:normal;font-variant-position:normal;font-variant-caps:normal;font-variant-numeric:normal;font-variant-alternates:normal;font-feature-settings:normal;text-indent:0;text-align:start;text-decoration-line:none;text-decoration-style:solid;text-decoration-color:#000;text-transform:none;text-orientation:mixed;shape-padding:0;isolation:auto;mix-blend-mode:normal"/></g></svg>