<svg xmlns="http://www.w3.org/2000/svg" viewBox="0 0 16.933 16.933"><g transform="translate(0 -280.067)"><path fill="#e7ebef" d="M 2.9104115,284.56458 H 14.022911 v 1.5875 H 2.9104115 Z"/><path fill="#fc6067" d="m 13.229161,286.15207 -1.32292,9.52501 c -0.0403,0.29036 -0.236,0.52917 -0.52916,0.52917 l -5.8208393,10e-6 c -0.2931501,0 -0.4928002,-0.23828 -0.5291601,-0.52917 l -1.3229201,-9.52501 z"/><path fill="#e7ebef" d="m 3.7041615,282.97708 h 9.5249995 v 1.5875 H 3.7041615 Z"/><path fill="#fc6067" d="m 7.9374915,280.86041 h 1.0583402 v 2.11667 H 7.9374915 Z"/><path fill="#e7ebef" d="m 10.318751,291.17917 a 1.8520924,1.8520924 0 0 1 -1.8520894,1.85209 1.8520924,1.8520924 0 0 1 -1.8521,-1.85209 1.8520924,1.8520924 0 0 1 1.8521,-1.85209 1.8520924,1.8520924 0 0 1 1.8520894,1.85209 z"/><path fill="#dbe1e7" d="m 12.434379,282.97708 c 3e-6,5.2e-4 5.29e-4,10e-4 5.29e-4,0.002 v 1.58592 h 0.794255 v -1.5875 z" color="#000" font-family="sans-serif" font-weight="400" overflow="visible" style="line-height:normal;font-variant-ligatures:normal;font-variant-position:normal;font-variant-caps:normal;font-variant-numeric:normal;font-variant-alternates:normal;font-feature-settings:normal;text-indent:0;text-align:start;text-decoration-line:none;text-decoration-style:solid;text-decoration-color:#000;text-transform:none;text-orientation:mixed;shape-padding:0;isolation:auto;mix-blend-mode:normal"/><path fill="#fb4f56" d="m 3.7093315,286.18825 0.1049052,0.75758 h 8.5131743 l -1.21698,8.76742 c -0.02522,0.18182 -0.09814,0.35433 -0.218591,0.49299 h 0.485241 c 0.293161,0 0.488868,-0.23881 0.529166,-0.52916 l 1.31775,-9.48883 h -0.791168 z" color="#000" font-family="sans-serif" font-weight="400" overflow="visible" style="line-height:normal;font-variant-ligatures:normal;font-variant-position:normal;font-variant-caps:normal;font-variant-numeric:normal;font-variant-alternates:normal;font-feature-settings:normal;text-indent:0;text-align:start;text-decoration-line:none;text-decoration-style:solid;text-decoration-color:#000;text-transform:none;text-orientation:mixed;shape-padding:0;isolation:auto;mix-blend-mode:normal"/><path fill="#dbe1e7" d="m 13.22968,284.56458 a 0.26460982,0.26460982 0 0 1 0,5.2e-4 v 1.58698 h 0.793234 v -1.5875 z" color="#000" font-family="sans-serif" font-weight="400" overflow="visible" style="line-height:normal;font-variant-ligatures:normal;font-variant-position:normal;font-variant-caps:normal;font-variant-numeric:normal;font-variant-alternates:normal;font-feature-settings:normal;text-indent:0;text-align:start;text-decoration-line:none;text-decoration-style:solid;text-decoration-color:#000;text-transform:none;text-orientation:mixed;shape-padding:0;isolation:auto;mix-blend-mode:normal"/><path d="m 3.4406217,282.97708 v 1.3224 H 2.9114516 c -0.14693,-5.3e-4 -0.26618,0.11868 -0.26562,0.26561 v 1.58802 c 5.292e-4,0.14612 0.1195001,0.26411 0.26562,0.26355 h 0.56275 l 1.2903599,9.29297 c 0.0489,0.39153 0.3546502,0.76171 0.7911701,0.76171 h 5.8223894 c 0.21841,0 0.41633,-0.0957 0.55087,-0.23823 0.13454,-0.14254 0.21296,-0.3267 0.23977,-0.51986 l 1.29088,-9.29659 h 0.56276 c 0.14612,5.3e-4 0.26503,-0.11743 0.26561,-0.26355 v -1.58802 c 5.29e-4,-0.14692 -0.11869,-0.26617 -0.26561,-0.26561 h -0.52917 v -1.3224 c -5.29e-4,-0.14532 -0.11824,-0.26297 -0.26355,-0.26355 H 9.2609315 v -1.85364 c -5.292e-4,-0.14612 -0.1194999,-0.2641 -0.2656099,-0.26355 H 7.9364617 c -0.008,-4e-4 -0.016899,-4e-4 -0.0253,0 -0.1353402,0.0136 -0.2383602,0.12753 -0.23823,0.26355 v 1.85364 H 3.6904916 c -0.1482199,0.0145 -0.2501001,0.12824 -0.2498501,0.26355 z m 4.76146,-1.85157 h 0.5291698 v 1.58802 H 8.2020817 Z m -4.23437,2.11511 h 8.9963593 v 1.05886 h -1.05886 c -0.36066,-0.008 -0.36066,0.53714 0,0.52916 h 1.85364 v 1.05834 H 3.1750017 v -1.05834 h 6.3494799 c 0.3606698,0.008 0.3606698,-0.53714 0,-0.52916 H 3.9677117 Z m 6.6156193,1.05886 c -0.36066,-0.008 -0.36066,0.53714 0,0.52916 h 0.26562 c 0.36066,0.008 0.36066,-0.53714 0,-0.52916 z m -6.5758294,2.11718 h 8.9183194 l -1.28209,9.22424 c -0.0135,0.0972 -0.053,0.17948 -0.0997,0.22893 -0.0467,0.0494 -0.0912,0.0723 -0.16588,0.0723 H 5.5557615 c -0.1497698,0 -0.24184,-0.10688 -0.26562,-0.29714 1.01e-5,-0.001 1.01e-5,-0.003 0,-0.004 z m 4.4581299,2.64635 c -1.1658798,0 -2.1151199,0.94924 -2.1151199,2.11511 0,1.16588 0.9492401,2.11719 2.1151199,2.11719 1.1658701,0 2.1176995,-0.95131 2.1176995,-2.11719 0,-1.16587 -0.9518294,-2.11511 -2.1176995,-2.11511 z m 0,0.52916 c 0.8798902,0 1.5880195,0.70606 1.5880195,1.58595 0,0.8799 -0.7081293,1.58802 -1.5880195,1.58802 -0.8798898,0 -1.5854299,-0.70812 -1.5854299,-1.58802 0,-0.87989 0.7055401,-1.58595 1.5854299,-1.58595 z" color="#000" font-family="sans-serif" font-weight="400" overflow="visible" style="line-height:normal;font-variant-ligatures:normal;font-variant-position:normal;font-variant-caps:normal;font-variant-numeric:normal;font-variant-alternates:normal;font-feature-settings:normal;text-indent:0;text-align:start;text-decoration-line:none;text-decoration-style:solid;text-decoration-color:#000;text-transform:none;text-orientation:mixed;shape-padding:0;isolation:auto;mix-blend-mode:normal"/></g></svg>