<svg xmlns="http://www.w3.org/2000/svg" enable-background="new 0 0 64 64" viewBox="0 0 64 64"><path fill="#487f2a" d="M43.69771,10.97394c4.66038,4.66038,6.59134,10.25181,6.26367,15.91825
			c-0.36474,6.30754-3.52811,12.708-8.84077,18.02065c-5.24693,5.24693-11.55492,8.39743-17.78651,8.82596
			c-5.74641,0.39517-11.42786-1.52427-16.15242-6.24883c-6.39022-6.39022-7.64875-14.53096-4.98931-22.2153
			c1.43905-4.15807,4.0253-8.1825,7.56643-11.72363c3.37504-3.37504,7.18911-5.88267,11.13947-7.35639
			C28.75242,3.2646,37.14531,4.42155,43.69771,10.97394z"/><path fill="#66b941" d="M39.27358 7.51343c-.18879.64196-.4783 1.30921-1.2588 2.0897-2.01425 2.01425-3.23532.79318-5.2369 2.79475-2.01425 2.01425-.79318 3.23532-2.79475 5.2369-2.00165 2.00165-3.22272.78057-5.2369 2.79475-2.00165 2.00165-.78057 3.22272-2.79475 5.2369-2.01425 2.01425-3.23532.79317-5.2369 2.79475-2.00165 2.00165-.78057 3.22272-2.79475 5.23689-2.00165 2.00165-3.22272.78057-5.2243 2.78215-2.01425 2.01425-.79318 3.23532-2.80735 5.2495-.8183.8183-1.51059 1.10782-2.19043 1.28408-2.06458-3.44931-2.93321-7.21342-2.79467-11.02778.62944-.17626 1.27148-.46578 2.03938-1.23368 2.01417-2.01417.79302-3.23532 2.79467-5.23697 2.00157-2.00157 3.22272-.78042 5.23697-2.79467 2.00157-2.00157.78042-3.22272 2.79467-5.23697 2.01417-2.01417 3.23532-.79302 5.23697-2.79467 2.00157-2.00157.78042-3.22272 2.79467-5.23697C23.80201 7.4505 25.02316 8.67165 27.02481 6.67c.74269-.74269 1.04481-1.37213 1.221-1.97645C32.06024 4.5551 35.82427 5.44885 39.27358 7.51343zM47.16677 15.43182c2.06458 3.44931 2.94573 7.20074 2.80735 11.0151-.59164.18886-1.19603.49098-1.92612 1.22108-2.01425 2.01425-.7931 3.2354-2.79467 5.23697-2.00165 2.00165-3.2228.7805-5.23697 2.79467-2.00165 2.00165-.7805 3.2228-2.79467 5.23698-2.01425 2.01425-3.2354.7931-5.23697 2.79467-2.00165 2.00165-.7805 3.2228-2.79467 5.23697-2.00165 2.00165-3.2228.7805-5.22437 2.78207-.75537.75537-1.04489 1.39741-1.24628 2.00172-3.81436.16359-7.59107-.71764-11.0529-2.76954.18886-.66724.4783-1.35961 1.2966-2.17791 2.01417-2.01417 3.23532-.79302 5.23697-2.79467 2.01417-2.01417.79302-3.23532 2.79467-5.23697 2.00157-2.00157 3.22272-.78042 5.23697-2.79467 2.00157-2.00157.78042-3.22272 2.79467-5.23697 2.01417-2.01418 3.23532-.79302 5.23697-2.79467 2.00157-2.00157.78042-3.22272 2.79467-5.23697 2.00157-2.00157 3.22272-.78042 5.22437-2.78207 2.01418-2.01417.79302-3.23532 2.80727-5.24957C45.87016 15.89752 46.53741 15.608 47.16677 15.43182z"/><path d="M41.1203,44.91834C31.03876,54.99987,17.03263,57.33718,7.17786,47.4823
			c-1.72676-1.72676-3.06984-3.55817-4.06406-5.49423c0.08719,0.05227,0.17449,0.12211,0.27913,0.17438
			c10.7618,6.34898,25.69232,0.9593,33.31454-12.00023c4.22098-7.16872,5.33731-15.17473,3.66282-21.95966
			c1.15125,0.78481,2.26757,1.7093,3.33152,2.77325C53.53923,20.83068,51.20193,34.81924,41.1203,44.91834z" enable-background="new" opacity=".15"/><path fill="#101016" d="M21.95434,54.65996c-5.62654,0.00174-11.0204-2.15998-15.40113-6.5407
			c-9.60357-9.60357-8.54355-24.07664,2.57669-35.19688s25.59417-12.18113,35.19601-2.57669
			c4.89294,4.89294,7.12064,10.97873,6.44173,17.5993c-0.63202,6.16392-3.83379,12.41119-9.01843,17.59583
			C35.70163,51.58842,28.6626,54.65996,21.95434,54.65996z M28.92305,5.61075c-6.26116,0-12.85656,2.88923-18.53605,8.56872
			C0.0073,24.55918-1.05272,38,7.81031,46.86216c8.86216,8.8639,22.30386,7.79954,32.68182-2.57843
			c4.89641-4.89641,7.9176-10.76343,8.50795-16.52018c0.6216-6.07016-1.42899-11.6585-5.93126-16.16077l0,0
			C39.05619,7.58929,34.10422,5.61075,28.92305,5.61075z"/><path fill="#101016" d="M3.69784 43.90348c-.30733 0-.5999-.15974-.76311-.43234-2.08879-3.49173-3.07068-7.36546-2.91962-11.51699.01389-.38633.27607-.7197.64851-.82388.53652-.15019 1.02182-.37852 1.65037-1.0062.83256-.83256.98015-1.44027 1.16767-2.20859.21183-.86903.45144-1.85352 1.62693-3.02901s2.15998-1.4151 3.02814-1.62693c.76832-.18666 1.37603-.33511 2.2086-1.16767.82301-.82302.9706-1.42725 1.15639-2.1921.2127-.87163.45318-1.85959 1.63822-3.04463 1.18504-1.18504 2.173-1.42552 3.0455-1.63821.76485-.18579 1.36909-.33337 2.1921-1.15639.82301-.82301.96973-1.42725 1.15639-2.1921.2127-.87163.45318-1.8596 1.63821-3.04463 1.17722-1.17722 2.16171-1.41597 3.03074-1.62693.76485-.18492 1.36909-.33077 2.19297-1.15552.66067-.6598.87424-1.17722.99664-1.59654.10765-.36723.43842-.62507.82128-.63896 4.12809-.16148 8.00182.84125 11.51612 2.94479.34726.20836.51048.62594.39588 1.01488-.20315.69105-.54 1.52449-1.48281 2.46644-1.18417 1.18504-2.17213 1.42552-3.0455 1.63822-.76398.18579-1.36822.33337-2.19123 1.15639-.83256.83256-.98015 1.43941-1.16767 2.20859-.21183.86816-.45144 1.85265-1.62693 3.02814-1.17549 1.17549-2.15998 1.4151-3.02814 1.62693-.76919.18752-1.37603.33511-2.2086 1.16767-.82302.82302-.9706 1.42725-1.15639 2.1921-.2127.87163-.45318 1.85959-1.63821 3.04463-1.18504 1.18504-2.173 1.42638-3.0455 1.63908-.76398.18579-1.36822.33337-2.19123 1.15639-.82301.82301-.9706 1.42725-1.15726 2.1921-.2127.87163-.45318 1.85959-1.63821 3.04376-1.17722 1.17722-2.16171 1.41684-3.03074 1.62693-.76485.18578-1.36909.33163-2.19297 1.15639-.8317.8317-.98015 1.4394-1.16854 2.20686-.21443.87163-.45665 1.8596-1.63908 3.04203-1.00272 1.00186-1.87435 1.32829-2.59493 1.5158C3.84716 43.8948 3.7725 43.90348 3.69784 43.90348zM1.77834 32.6261c-.02431 3.33026.75617 6.45563 2.3258 9.31013.36549-.16495.73446-.41498 1.15552-.83517.8317-.8317.98015-1.43941 1.16854-2.20686.21444-.87163.45665-1.8596 1.63908-3.04203 1.17722-1.17722 2.16171-1.41684 3.03074-1.62693.76485-.18578 1.36909-.33163 2.19297-1.15638.83256-.83257.98015-1.43941 1.16767-2.2086.21183-.86816.45231-1.85265 1.6278-3.02727 1.17462-1.17549 2.15911-1.4151 3.02727-1.62693.76919-.18752 1.3769-.33598 2.20946-1.16854.83256-.83257.98015-1.43941 1.16767-2.2086.21183-.86816.45144-1.85265 1.62693-3.02814 1.18504-1.18504 2.173-1.42552 3.04463-1.63821.76485-.18579 1.36909-.33337 2.1921-1.15639.82302-.82301.9706-1.42725 1.15639-2.1921.2127-.87163.45318-1.8596 1.63822-3.04463 1.17548-1.17549 2.15998-1.4151 3.02813-1.62693.76919-.18752 1.3769-.33511 2.2086-1.16767.38373-.38373.62334-.72491.79002-1.0661-2.87186-1.57744-6.02415-2.34229-9.30231-2.33969-.27.61986-.66154 1.17115-1.22063 1.72937-1.17722 1.17722-2.16171 1.41597-3.03074 1.62693-.76485.18492-1.36909.33077-2.19297 1.15552-.83256.83256-.98102 1.44027-1.16767 2.20859-.21183.86816-.45144 1.85265-1.62693 3.02814-1.17549 1.17549-2.15998 1.4151-3.02901 1.62693-.76832.18752-1.37603.33511-2.20859 1.16767-.83256.83257-.98015 1.43941-1.16767 2.2086-.21183.86903-.45144 1.85265-1.62693 3.02814-1.18504 1.18504-2.173 1.42552-3.04463 1.63821-.76485.18666-1.36909.33337-2.1921 1.15639-.82301.82301-.9706 1.42725-1.15639 2.1921-.2127.8725-.45318 1.86046-1.63822 3.0455C2.90087 32.05138 2.30358 32.40907 1.77834 32.6261zM21.8111 54.65996c-3.77389 0-7.3342-.97755-10.59761-2.91354-.34726-.20489-.51221-.61813-.40196-1.00533.20228-.71883.54173-1.58352 1.52275-2.56454 1.18504-1.18417 2.173-1.42551 3.04463-1.63908.76572-.18578 1.36909-.33337 2.19297-1.15638.83256-.8317.98015-1.43941 1.16767-2.2086.21183-.86816.45144-1.85265 1.62693-3.02814 1.17462-1.17549 2.15911-1.4151 3.02727-1.62693.76919-.18752 1.3769-.33511 2.20946-1.16854.82302-.82301.96973-1.42725 1.15639-2.19123.2127-.87163.45318-1.86133 1.63821-3.0455 1.18504-1.18417 2.173-1.42552 3.0455-1.63735.76485-.18665 1.36909-.33337 2.1921-1.15639.82128-.82301.96886-1.42725 1.15465-2.1921.21357-.87163.45318-1.86046 1.63908-3.0455 1.17722-1.17722 2.16172-1.41597 3.03161-1.62606.76398-.18579 1.36822-.33164 2.19297-1.15552.8317-.8317.98102-1.43941 1.16854-2.20773.21357-.87163.45665-1.8596 1.63908-3.04203.96365-.96539 1.82487-1.29442 2.46557-1.47326.38546-.10852.79697.05556 1.00185.39935 2.09747 3.50302 3.0837 7.37327 2.93438 11.5031-.01389.37504-.26045.7006-.61813.81433-.43234.13804-.92025.35508-1.56789 1.00359-.8317.83256-.98102 1.44028-1.16854 2.20946-.21183.86816-.45144 1.85265-1.62693 3.02814-1.17549 1.17375-2.15998 1.4151-3.02814 1.62519-.76919.18752-1.37516.33511-2.2086 1.16854-.82301.82301-.9706 1.42725-1.15639 2.19297-.21357.87163-.45491 1.85959-1.63908 3.04376-1.18417 1.18417-2.17213 1.42551-3.04376 1.63908-.76572.18578-1.36822.33337-2.1921 1.15639-.82301.82301-.9706 1.42725-1.15639 2.19123-.2127.87337-.45318 1.86133-1.63821 3.0455-1.17722 1.17722-2.16258 1.41684-3.03248 1.62693-.76398.18405-1.36822.3299-2.1921 1.15465-.66501.66501-.88118 1.20327-1.03224 1.65471-.11633.349-.43668.59035-.80478.60771C22.44051 54.65302 22.1245 54.65996 21.8111 54.65996zM12.75534 50.57962c2.89444 1.57484 6.03023 2.36312 9.34659 2.30062.23267-.5261.59208-1.11645 1.23539-1.75889 1.17722-1.17722 2.16258-1.41684 3.03161-1.62693.76485-.18405 1.36909-.3299 2.19297-1.15465.83256-.8317.98015-1.43941 1.16767-2.2086.21183-.86816.45144-1.85265 1.62693-3.02814 1.17462-1.17549 2.15911-1.4151 3.02727-1.62693.76919-.18752 1.3769-.33685 2.2086-1.16854.8317-.83343.98102-1.4394 1.16854-2.20859.21183-.86816.45144-1.85265 1.62693-3.02814 1.18417-1.18591 2.17387-1.42552 3.0455-1.63908.76398-.18579 1.36822-.33337 2.19123-1.15465.82301-.82301.9706-1.42725 1.15639-2.19297.21357-.87163.45491-1.8596 1.63908-3.04463.63202-.63289 1.19806-.98796 1.67902-1.20761.02605-3.3155-.75529-6.44-2.33014-9.30666-.31601.15627-.66154.39154-1.05047.78134-.8317.8317-.98102 1.43941-1.16854 2.20773-.21357.87163-.45665 1.85959-1.63908 3.04203-1.17722 1.17722-2.16171 1.41597-3.03161 1.62606-.76398.18579-1.36822.33164-2.19297 1.15552-.83343.83256-.98102 1.44027-1.16854 2.20946-.21009.86816-.45144 1.85265-1.62519 3.02814-1.17548 1.17549-2.15998 1.4151-3.029 1.62693-.76919.18752-1.37603.33511-2.2086 1.16681-.83256.83343-.98015 1.43941-1.16767 2.2086-.21183.8699-.45144 1.85439-1.62693 3.02814-1.18504 1.1859-2.173 1.42725-3.0455 1.63908-.76485.18578-1.36822.33337-2.19123 1.15638-.82302.82302-.9706 1.42725-1.15639 2.19123-.2127.87337-.45318 1.86133-1.63821 3.0455-1.17549 1.17549-2.15998 1.4151-3.02814 1.62693-.76919.18752-1.3769.33685-2.20946 1.16854C13.1625 49.86252 12.91508 50.24104 12.75534 50.57962z"/><g><path fill="#75d64c" d="M60.41341,36.60717c1.58878,0,2.84747,1.37211,2.68451,2.95251
			c-1.2313,11.94137-9.98602,19.76161-22.56495,19.76161c-12.57891,0-21.33931-7.82016-22.57152-19.76144
			c-0.16309-1.58046,1.09564-2.95269,2.6845-2.95269H60.41341z"/><path fill="#f7524b" d="M58.23662,36.60717c0,9.78045-5.71193,17.70366-17.70366,17.70366s-17.71034-7.92321-17.71034-17.70366
			H58.23662z"/><path d="M63.09153,39.55399c-1.22689,11.94281-9.98747,19.76398-22.5628,19.76398
			c-2.18538,0-4.23655-0.23003-6.1726-0.69008c5.80836,0.23003,11.8085-3.00966,15.23983-8.81802
			c2.51123-4.23655,3.18224-9.00979,2.18538-13.20797h8.62638C61.99884,36.60189,63.26399,37.98206,63.09153,39.55399z" enable-background="new" opacity=".15"/><path fill="#101016" d="M40.5338,60.21097c-12.96074,0-22.16842-8.0704-23.45677-20.55973
			c-0.10244-0.99665,0.22485-1.99677,0.89941-2.74512c0.6815-0.7553,1.65384-1.18764,2.66959-1.18764h39.76686
			c1.01574,0,1.98808,0.43234,2.66872,1.18764c0.67543,0.74835,1.00359,1.74847,0.89941,2.74512
			C62.69441,52.14057,53.4902,60.21097,40.5338,60.21097z M20.64603,37.49647c-0.51308,0-1.00446,0.21878-1.34912,0.60077
			c-0.34292,0.38026-0.50266,0.86642-0.45057,1.36996c1.18851,11.5222,9.7008,18.96579,21.68747,18.96579
			c11.98232,0,20.49201-7.44359,21.67965-18.96579c0.05209-0.50353-0.10939-0.9897-0.45144-1.36996
			c-0.34379-0.38199-0.83691-0.60077-1.34912-0.60077H20.64603z"/><path fill="#101016" d="M40.5338,55.19996c-11.47271,0-18.60029-7.12411-18.60029-18.59248c0-0.49138,0.39762-0.889,0.88899-0.889
			h35.41478c0.49138,0,0.88899,0.39762,0.88899,0.889C59.12628,48.07585,52.00217,55.19996,40.5338,55.19996z M23.72886,37.49647
			c0.31514,7.86031,4.853,15.9255,16.80494,15.9255c11.94586,0,16.48285-8.06519,16.79713-15.9255H23.72886z"/><path fill="#101016" d="M47.81591 48.84851c-.49138 0-.889-.39762-.889-.88899v-1.32307c0-.49138.39762-.889.889-.889.49137 0 .88899.39762.88899.889v1.32307C48.70491 48.45089 48.30729 48.84851 47.81591 48.84851zM40.53033 48.84851c-.49137 0-.88899-.39762-.88899-.88899v-1.32307c0-.49138.39762-.889.88899-.889.49138 0 .889.39762.889.889v1.32307C41.41932 48.45089 41.02171 48.84851 40.53033 48.84851zM33.24301 48.84851c-.49138 0-.889-.39762-.889-.88899v-1.32307c0-.49138.39762-.889.889-.889.49137 0 .88899.39762.88899.889v1.32307C34.132 48.45089 33.73438 48.84851 33.24301 48.84851zM51.46044 42.90683c-.49138 0-.889-.39761-.889-.88899v-1.32307c0-.49137.39762-.88899.889-.88899s.88899.39762.88899.88899v1.32307C52.34943 42.50922 51.95182 42.90683 51.46044 42.90683zM44.17312 42.90683c-.49137 0-.88899-.39761-.88899-.88899v-1.32307c0-.49137.39762-.88899.88899-.88899.49138 0 .889.39762.889.88899v1.32307C45.06211 42.50922 44.6645 42.90683 44.17312 42.90683zM36.8858 42.90683c-.49138 0-.889-.39761-.889-.88899v-1.32307c0-.49137.39762-.88899.889-.88899s.88899.39762.88899.88899v1.32307C37.77479 42.50922 37.37718 42.90683 36.8858 42.90683zM29.59935 42.90683c-.49138 0-.88899-.39761-.88899-.88899v-1.32307c0-.49137.39762-.88899.88899-.88899.49138 0 .88899.39762.88899.88899v1.32307C30.48834 42.50922 30.09072 42.90683 29.59935 42.90683z"/></g></svg>