<svg xmlns="http://www.w3.org/2000/svg" viewBox="0 0 64 64"><path fill="#a0d964" d="M28.00816,9V20.99A4.74443,4.74443,0,0,1,27.9083,22a5.38588,5.38588,0,0,1-1.65014,3h5.75V9Z"/><path fill="#636a74" d="M48.00824,55h7.98a4.88611,4.88611,0,0,1,1.01,3,5,5,0,0,1-10,0A4.88611,4.88611,0,0,1,48.00824,55Zm5.99,3a2,2,0,1,0-2,2A2.00588,2.00588,0,0,0,53.99824,58Z"/><circle cx="51.998" cy="58" r="2" fill="#cad1e1"/><circle cx="19.008" cy="58" r="2" fill="#cad1e1"/><path fill="#636a74" d="M21.00824,58a2,2,0,1,0-2,2A2.00588,2.00588,0,0,0,21.00824,58Zm3,0a5,5,0,0,1-10,0,4.94119,4.94119,0,0,1,1-3h8A4.94119,4.94119,0,0,1,24.00824,58Z"/><path fill="#d8e0eb" d="M14.98824 47a1.73292 1.73292 0 00.32-.03 1.91763 1.91763 0 00.67-.24c-1.79 1.16-4.02 2.52-5.81 3.68a.30341.30341 0 00-.16.27.31382.31382 0 00.31.32h50.69a2 2 0 010 4h-50.69a4.31671 4.31671 0 01-2.09-8.09c1.54-.85 3.09-1.71 4.63-2.56l.16.97A2.00372 2.00372 0 0014.98824 47zM16.20824 40h28.71l-1.75 1.81a3.91326 3.91326 0 01-2.8 1.19h-23.67z"/><polygon fill="#e6ecf4" points="43.008 3 45.008 7 32.008 7 34.008 3 43.008 3"/><path fill="#d8e0eb" d="M58.35824,9h-9.66a5.27562,5.27562,0,0,1,1.01-1.38,3.04274,3.04274,0,0,0,.87-2.18V5h5.89v.44a3.051,3.051,0,0,0,.88,2.18A5.27562,5.27562,0,0,1,58.35824,9Z"/><polygon fill="#636a74" points="57.008 1 57.008 5 56.468 5 50.578 5 50.008 5 50.008 1 57.008 1"/><path fill="#e6ecf4" d="M58.35826,9h-9.66a6.04052,6.04052,0,0,0-.69006,2.83V15h0V25.74A3.705,3.705,0,0,0,48.22825,27h2.85a1.959,1.959,0,0,1,.48.05,2.90086,2.90086,0,0,1,2.3,1.95h2.32006a3.0874,3.0874,0,0,0,2.86988-3.26V15h0V11.83A6.04186,6.04186,0,0,0,58.35826,9Z"/><path fill="#b18fff" d="M53.85826,29a2.90086,2.90086,0,0,0-2.3-1.95,1.959,1.959,0,0,0-.48-.05H45.00816v2h-9v8H51.07823a2.92764,2.92764,0,0,0,2.92993-2.93V29.93A2.83393,2.83393,0,0,0,53.85826,29Z"/><path fill="#66a9ff" d="M33.13828,25h-10.27a2.88914,2.88914,0,0,0-2.29,1.14,2.84234,2.84234,0,0,0-.57007,1.72V40h16V27.86A2.86786,2.86786,0,0,0,33.13828,25Z"/><path fill="#ff7255" d="M32.00816,7v8h0V25h1.13012a2.86786,2.86786,0,0,1,2.86988,2.86V29h9V15h0V7Z"/><path fill="#ffcfa0" d="M26.38828,2.62a5.49435,5.49435,0,0,0-9.39013,3.89V15h0v5.99a4.80233,4.80233,0,0,0,.1001,1.01,5.4903,5.4903,0,0,0,3.48,4.14,2.88914,2.88914,0,0,1,2.29-1.14h3.3899a5.38588,5.38588,0,0,0,1.65014-3h0a4.74443,4.74443,0,0,0,.09986-1.01V6.51A5.46177,5.46177,0,0,0,26.38828,2.62Z"/><path fill="#e6ecf4" d="M16.96824,44.68a1.99959,1.99959,0,0,1-.95,2.03.07581.07581,0,0,1-.04.02,1.91763,1.91763,0,0,1-.67.24,1.73292,1.73292,0,0,1-.32.03,2.00372,2.00372,0,0,1-1.97-1.68l-.16-.97-2.84-17.53-2.52-15.53a1.526,1.526,0,0,0-1.51-1.29h-2.89a2.07169,2.07169,0,0,1-2.08-1.66A2.00426,2.00426,0,0,1,2.98824,6h6a2.0077,2.0077,0,0,1,1.98,1.68l1.19,7.32,1.13,7,.68,4.18.94,5.82,1.3,8,.49,3Z"/><path d="M14.99023,48a2.98757,2.98757,0,0,1-2.96-2.51953L6.51172,11.44531A.52826.52826,0,0,0,5.98828,11H3.09961A3.08184,3.08184,0,0,1,.0332,8.49609,3.002,3.002,0,0,1,2.99219,5h6a2.98984,2.98984,0,0,1,2.96289,2.51953l5.999,37A2.997,2.997,0,0,1,14.99023,48ZM2.99219,7a1.00021,1.00021,0,0,0-.98438,1.1748A1.08263,1.08263,0,0,0,3.09961,9H5.98828a2.52052,2.52052,0,0,1,2.49805,2.125l5.51855,34.03516a1.00021,1.00021,0,0,0,1.97461-.32032l-5.999-37A.99683.99683,0,0,0,8.99219,7Z"/><path d="M50.27734 41H16.207a1 1 0 010-2H50.27734A8.63437 8.63437 0 0058.957 32.42285l3.03027-15.001a1.08641 1.08641 0 00-.24218-.9043A1.46939 1.46939 0 0060.59766 16H12.15723a1 1 0 110-2H60.59766a3.46451 3.46451 0 012.69336 1.248 3.08917 3.08917 0 01.65722 2.5664L60.918 32.81836A10.63687 10.63687 0 0150.27734 41zM61.00781 56H10.31738a5.31713 5.31713 0 01-2.57519-9.96484L12.374 43.47461a.99965.99965 0 11.9668 1.75L8.71094 47.78516A3.317 3.317 0 0010.31738 54H61.00781a1 1 0 100-2H10.31738a1.316 1.316 0 01-.666-2.44727c.94726-.61523 2.01855-1.28418 3.083-1.94824.95312-.59472 1.90039-1.18554 2.74609-1.73144a1.00037 1.00037 0 111.084 1.68164c-.85351.5498-1.80957 1.14648-2.77148 1.74707-.37305.23242-.74805.46679-1.11719.69824h48.332a3 3 0 110 6z"/><path d="M40.36719 44H16.69727a1 1 0 010-2H40.36719a2.92436 2.92436 0 002.083-.8877l1.748-1.80761a1 1 0 111.4375 1.39062l-1.75 1.80957A4.93446 4.93446 0 0140.36719 44zM19.00781 64a6.00657 6.00657 0 01-6-6 5.90572 5.90572 0 011.2041-3.60547 1 1 0 111.5918 1.21094A3.92028 3.92028 0 0015.00781 58a4 4 0 108 0 3.92616 3.92616 0 00-.79687-2.39551 1.00021 1.00021 0 111.59375-1.209A5.9123 5.9123 0 0125.00781 58a5.9866 5.9866 0 01-6 6z"/><path d="M19.00781 61a3 3 0 113-3A3.00328 3.00328 0 0119.00781 61zm0-4a1 1 0 101 1A1.00067 1.00067 0 0019.00781 57zM51.99707 64a6.00657 6.00657 0 01-6-6 5.86046 5.86046 0 011.21875-3.61133 1.00049 1.00049 0 011.584 1.22266A3.86685 3.86685 0 0047.99707 58a4.004 4.004 0 004 4 4.001 4.001 0 004-4 3.87681 3.87681 0 00-.80176-2.38965.99989.99989 0 011.584-1.2207A5.85882 5.85882 0 0157.99707 58a6.00153 6.00153 0 01-6 6z"/><path d="M51.99805 60.999a3 3 0 113-3A3.00328 3.00328 0 0151.99805 60.999zm0-4a1 1 0 101 1A1.00068 1.00068 0 0051.99805 56.999zM33.00684 41a1.00005 1.00005 0 01-.998-.96l-1-25a.99983.99983 0 011.998-.08008l1 25a.99919.99919 0 01-.959 1.03906C33.03418 41 33.02051 41 33.00684 41zM25.00684 41a1.00116 1.00116 0 01-.99219-.88086l-3-25a1.00029 1.00029 0 011.98633-.23828l3 25A.9981.9981 0 0125.00684 41zM42.00879 40.999c-.01367 0-.02734 0-.041-.001a.9992.9992 0 01-.959-1.03907l1-24.999a.98614.98614 0 011.03906-.959.99919.99919 0 01.959 1.03906l-1 24.999A1.00006 1.00006 0 0142.00879 40.999zM50.00879 40.999a.998.998 0 01-.99414-1.11914l3-25a1.00029 1.00029 0 011.98633.23828l-3 25A1.00117 1.00117 0 0150.00879 40.999z"/><path d="M62.08691 23H13.28711a1 1 0 110-2h48.7998a1 1 0 010 2zM60.06738 33H14.90723a1 1 0 110-2H60.06738a1 1 0 010 2z"/><path d="M20.57715,27.13965a.99736.99736,0,0,1-.3457-.06153,6.50622,6.50622,0,0,1-4.23438-6.08789V6.50977A6.51212,6.51212,0,0,1,22.49707,0a6.53012,6.53012,0,0,1,6.51074,6.50977V20.99023A6.48614,6.48614,0,0,1,26.9375,25.7334a.99993.99993,0,1,1-1.35938-1.4668,4.48087,4.48087,0,0,0,1.42969-3.27637V6.50977A4.533,4.533,0,0,0,22.49707,2a4.51014,4.51014,0,0,0-4.5,4.50977V20.99023a4.49884,4.49884,0,0,0,2.92578,4.21094,1,1,0,0,1-.3457,1.93848Z"/><path d="M24.00781 11a.99676.99676 0 01-.707-.293l-3-3A.99989.99989 0 0121.71484 6.293l3 3a1 1 0 01-.707 1.707zM20.00781 41a.99943.99943 0 01-1-1V27.86426A3.86851 3.86851 0 0122.87207 24H33.14258a3.86934 3.86934 0 013.86523 3.86426V39.999a1 1 0 01-2 0V27.86426A1.86673 1.86673 0 0033.14258 26H22.87207a1.8659 1.8659 0 00-1.86426 1.86426V40A.99942.99942 0 0120.00781 41z"/><path d="M45.00781,30h-9a1,1,0,0,1,0-2h8V8h-11V25a1,1,0,0,1-2,0V7a.99943.99943,0,0,1,1-1h13a.99942.99942,0,0,1,1,1V29A.99942.99942,0,0,1,45.00781,30Z"/><path d="M45.00879 8a1.00011 1.00011 0 01-.89551-.55273L42.38965 4H34.626L32.90234 7.44727a1.00012 1.00012 0 01-1.78906-.89454l2-4A1.00041 1.00041 0 0134.00781 2h9a1.0004 1.0004 0 01.89453.55273l2 4A.99991.99991 0 0145.00879 8zM41.00781 12h-5a1 1 0 010-2h5a1 1 0 010 2zM51.07715 38H33.08691a2.32034 2.32034 0 01-.33886-.01953A1 1 0 1133.02734 36H51.07715a1.93216 1.93216 0 001.93066-1.92969V29.92969A1.93216 1.93216 0 0051.07715 28H45.00781a1 1 0 010-2h6.06934a3.93478 3.93478 0 013.93066 3.92969v4.14062A3.93478 3.93478 0 0151.07715 38zM57.00781 6h-7a.99943.99943 0 01-1-1V1a.99943.99943 0 011-1h7a.99942.99942 0 011 1V5A.99942.99942 0 0157.00781 6zm-6-2h5V2h-5z"/><path d="M48.22754 28a.99947.99947 0 01-.94043-.66016 4.694 4.694 0 01-.2793-1.59961V11.83008a7.05778 7.05778 0 01.80567-3.29785 6.2008 6.2008 0 011.19629-1.62891 2.04854 2.04854 0 00.56738-1.46289V5a1 1 0 012 0v.44043A4.06049 4.06049 0 0150.40723 8.334a4.24842 4.24842 0 00-.81934 1.12012 5.078 5.078 0 00-.58008 2.376V25.74023a2.70179 2.70179 0 00.16016.91993.99986.99986 0 01-.60059 1.28027A.98943.98943 0 0148.22754 28zM56.17773 30H53.85742a1 1 0 110-2h2.32031a2.09512 2.09512 0 001.86915-2.25977V11.83008a5.05936 5.05936 0 00-.57325-2.36231 4.26332 4.26332 0 00-.82324-1.13086 4.06286 4.06286 0 01-1.18262-2.89648V5a1 1 0 012 0v.44043a2.05313 2.05313 0 00.58008 1.46582 6.21457 6.21457 0 011.2002 1.63965 7.03924 7.03924 0 01.79883 3.28418V25.74023A4.08313 4.08313 0 0156.17773 30z"/><path d="M58.377 10H48.67773a1 1 0 010-2H58.377a1 1 0 010 2zM32.00781 10h-4a1 1 0 010-2h4a1 1 0 010 2z"/></svg>